<svg xmlns="http://www.w3.org/2000/svg" width="1024" height="1024" viewBox="0 0 1024 1024">
<g>
<path d="M 445.80 442.00 C445.23,443.92 444.43,445.86 444.03,446.30 C443.63,446.74 440.72,440.55 437.57,432.54 C431.92,418.19 430.42,416.00 426.24,416.00 C423.58,416.00 421.00,419.17 415.44,429.25 L 410.62 438.00 L 394.00 438.00 L 393.89 430.75 C393.60,411.72 394.76,402.48 399.16,389.00 C409.05,358.69 434.74,330.68 464.55,317.72 C489.18,307.01 519.77,305.07 545.68,312.58 C575.62,321.26 601.05,341.68 617.18,370.00 C621.47,377.53 627.29,393.11 626.22,394.18 C625.60,394.80 622.44,393.69 617.38,391.08 C613.05,388.84 607.03,386.34 604.00,385.51 C596.17,383.37 579.78,382.53 572.00,383.86 C559.45,386.02 557.11,386.73 549.16,390.80 C538.07,396.47 538.31,396.35 530.68,399.89 C526.93,401.63 521.57,405.18 518.77,407.77 C513.47,412.69 504.39,425.61 503.37,429.66 C503.05,430.95 502.27,432.00 501.64,432.00 C501.01,432.01 498.02,434.29 495.00,437.08 C488.41,443.15 485.15,445.48 484.34,444.67 C483.73,444.06 480.52,432.49 474.48,409.11 C472.58,401.75 470.51,395.11 469.89,394.36 C468.39,392.56 463.52,392.62 461.68,394.46 C460.88,395.26 458.78,400.55 457.02,406.21 C455.25,411.87 452.25,421.45 450.33,427.50 C448.41,433.55 446.38,440.08 445.80,442.00 ZM 446.43 684.43 C445.39,685.47 443.04,686.00 439.49,686.00 C439.20,686.00 438.92,686.00 438.65,686.00 C436.64,686.01 435.15,686.02 434.06,685.37 C430.99,683.55 431.00,676.55 431.01,649.95 C431.01,648.69 431.01,647.38 431.02,646.03 C431.02,626.49 431.36,610.00 431.77,609.40 C432.95,607.63 436.66,606.00 439.50,606.00 C442.34,606.00 446.05,607.63 447.23,609.40 C447.64,610.00 447.98,619.16 447.98,629.75 C447.99,640.34 448.35,649.00 448.77,649.00 C449.19,649.00 454.47,644.05 460.50,638.00 L 471.47 627.00 L 476.66 627.00 C482.36,627.00 485.00,628.68 485.00,632.30 C485.00,633.69 481.74,637.74 475.90,643.60 L 466.80 652.74 L 476.40 666.02 C481.68,673.33 486.00,680.07 486.00,681.00 C486.00,683.97 482.65,686.00 477.75,686.00 C475.23,686.00 472.45,685.73 471.58,685.39 C470.71,685.06 466.97,680.68 463.25,675.67 C459.54,670.65 455.99,665.88 455.37,665.08 C454.41,663.83 453.77,664.08 451.12,666.73 C448.27,669.58 448.00,670.40 448.00,676.35 C448.00,680.93 447.54,683.32 446.43,684.43 ZM 366.40 684.53 C357.57,688.16 348.95,687.33 342.06,682.20 C335.68,677.44 333.59,666.89 337.63,659.83 C340.89,654.13 347.38,651.69 360.68,651.18 C371.42,650.77 372.00,650.64 371.98,648.62 C371.94,641.84 361.36,638.87 350.46,642.57 C346.27,643.99 345.63,643.99 343.44,642.55 C338.60,639.38 339.30,632.45 344.73,629.64 C348.00,627.95 357.77,626.00 362.97,626.00 C368.32,626.00 376.45,628.37 380.41,631.08 C382.32,632.39 384.93,635.27 386.20,637.48 C388.36,641.26 388.52,642.74 388.82,662.14 C389.14,682.70 389.13,682.79 386.85,684.39 C383.70,686.60 377.82,686.43 374.79,684.05 C372.32,682.10 372.29,682.11 366.40,684.53 ZM 312.55 683.55 C310.69,685.40 309.03,686.00 305.74,686.00 C305.50,686.00 305.27,686.00 305.05,686.00 C302.87,686.01 301.33,686.01 300.22,685.32 C297.39,683.55 297.40,677.24 297.00,654.83 L 296.50 626.50 L 286.50 626.24 C277.75,626.01 276.28,625.71 274.75,623.88 C272.58,621.28 272.49,616.17 274.56,613.22 C276.11,611.01 276.25,611.00 306.00,611.00 C335.75,611.00 335.89,611.01 337.44,613.22 C339.59,616.29 339.45,622.29 337.17,624.35 C335.72,625.66 333.23,626.00 325.17,626.00 L 315.00 626.00 L 315.00 681.09 ZM 492.00 397.17 C492.00,407.71 492.24,416.10 492.52,415.81 C492.81,415.52 494.95,412.81 497.27,409.79 C499.60,406.76 503.41,401.93 505.75,399.06 C509.95,393.88 510.00,393.73 510.00,385.91 L 510.00 378.00 L 525.93 378.00 C543.34,378.00 544.24,377.73 545.48,372.08 C546.21,368.75 544.02,363.61 541.46,362.62 C540.56,362.28 522.20,362.00 500.64,362.00 L 497.79 362.00 C466.51,362.00 459.21,362.00 457.51,365.08 C456.99,366.02 456.99,367.25 457.00,368.85 C457.00,369.01 457.00,369.17 457.00,369.33 C457.00,371.66 457.70,374.56 458.56,375.78 C460.05,377.92 460.71,378.00 476.06,378.00 L 492.00 378.00 ZM 416.17 684.35 C413.89,686.41 406.14,686.55 403.44,684.58 C401.59,683.23 401.49,681.47 401.21,647.83 C401.05,628.40 401.15,611.56 401.43,610.42 C402.71,605.31 414.02,604.58 417.23,609.40 C417.64,610.00 417.98,626.74 417.98,646.60 C418.00,680.30 417.88,682.80 416.17,684.35 ZM 466.61 454.86 C457.33,458.31 451.42,458.44 452.43,455.17 C452.72,454.25 455.17,446.30 457.88,437.50 C463.43,419.50 465.07,415.05 465.61,416.50 C465.82,417.05 467.99,424.70 470.43,433.50 L 470.63 434.25 C473.60,444.93 474.74,449.03 473.19,451.33 C472.20,452.83 470.08,453.57 466.61,454.86 ZM 434.32 457.75 C432.23,459.29 430.18,459.22 422.50,457.34 C419.20,456.54 414.55,455.45 412.17,454.92 C409.79,454.40 406.29,452.91 404.39,451.62 L 400.94 449.27 L 407.99 448.77 C416.20,448.18 417.25,447.45 421.98,439.03 C423.85,435.71 425.67,433.00 426.04,433.00 C426.40,433.00 428.80,438.29 431.37,444.75 C435.67,455.59 435.90,456.60 434.32,457.75 ZM 354.25 672.51 C355.88,673.69 357.98,674.02 361.92,673.72 C368.48,673.22 372.00,669.98 372.00,664.44 L 372.00 661.00 L 366.15 661.00 C362.93,661.00 358.87,661.50 357.13,662.11 C351.79,663.96 350.23,669.61 354.25,672.51 Z" fill="rgb(27,140,203)"/>
<path d="M 540.50 579.56 C532.79,581.06 502.80,582.32 496.50,581.40 C475.07,578.27 460.16,574.16 447.28,567.82 C436.56,562.54 440.55,559.61 451.72,564.56 C454.90,565.96 462.83,568.66 469.35,570.56 C529.25,587.98 591.32,568.37 632.47,519.03 C639.80,510.25 649.58,493.25 654.06,481.53 C670.47,438.57 668.19,395.56 647.40,356.13 C641.32,344.60 638.56,340.37 629.09,328.09 C623.40,320.71 621.01,316.00 622.95,316.00 C623.83,316.00 634.00,326.70 638.14,332.00 C646.40,342.54 654.70,357.81 660.62,373.33 C674.85,410.61 672.27,456.47 653.86,493.25 C630.81,539.30 590.90,569.69 540.50,579.56 ZM 376.83 496.67 C380.20,503.37 380.69,505.01 379.57,505.94 C377.62,507.56 376.08,505.70 370.73,495.31 C365.09,484.37 359.68,468.95 356.81,455.65 C355.02,447.36 354.61,442.11 354.56,427.00 C354.47,399.39 358.40,381.43 369.22,360.07 C373.33,351.95 375.00,349.56 376.76,349.32 C376.87,349.31 376.97,349.29 377.07,349.28 C377.65,349.19 378.07,349.13 378.27,349.31 C378.84,349.82 377.73,352.22 373.52,361.34 C373.25,361.91 372.98,362.50 372.69,363.12 C353.53,404.56 355.05,453.34 376.83,496.67 ZM 536.80 751.66 C536.54,756.74 536.22,757.54 534.38,757.80 C533.13,757.98 532.00,757.44 531.63,756.47 C530.52,753.58 530.94,728.23 532.14,725.60 C533.41,722.82 539.39,720.00 544.05,720.00 C552.42,720.00 557.99,725.83 558.00,734.60 C558.00,741.07 554.99,745.85 549.62,747.89 C545.80,749.35 545.41,749.30 538.80,746.54 C537.34,745.92 537.06,746.62 536.80,751.66 ZM 441.57 291.63 C436.66,294.09 427.00,299.96 420.10,304.67 C413.20,309.39 408.16,312.51 408.90,311.62 C410.27,309.97 409.24,309.38 407.38,310.75 C406.82,311.16 408.98,308.97 412.18,305.87 C430.12,288.54 459.53,275.32 490.00,270.89 C508.28,268.23 539.00,269.91 539.00,273.57 C539.00,273.65 539.00,273.73 539.01,273.81 C539.01,274.02 539.02,274.19 538.96,274.35 C538.62,275.18 536.18,275.16 520.21,275.04 C519.20,275.04 518.13,275.03 517.00,275.02 C486.66,274.80 466.03,279.34 441.57,291.63 ZM 584.97 747.02 C583.86,747.61 580.82,748.32 578.22,748.59 C569.37,749.50 563.00,743.29 563.00,733.75 C563.00,721.89 576.30,715.94 585.14,723.84 C587.47,725.91 588.32,727.67 588.72,731.21 L 589.24 735.86 L 585.57 736.55 C583.56,736.93 580.12,736.95 577.93,736.61 C573.14,735.84 569.00,736.73 569.00,738.54 C569.00,739.26 570.23,740.82 571.74,742.01 C574.50,744.18 575.07,744.20 583.75,742.43 C586.59,741.86 587.00,742.04 587.00,743.85 C587.00,744.99 586.09,746.42 584.97,747.02 ZM 428.42 745.13 C426.91,748.08 424.91,749.18 423.11,748.07 C421.92,747.34 414.00,725.16 414.00,722.56 C414.00,720.58 416.73,719.87 418.30,721.45 C419.05,722.19 420.70,726.68 421.97,731.40 C423.24,736.13 424.58,740.00 424.93,740.00 C425.29,740.00 426.94,735.84 428.60,730.75 C431.32,722.44 431.88,721.50 434.06,721.50 C436.23,721.50 436.84,722.47 439.50,730.17 C441.15,734.94 442.78,739.11 443.11,739.45 C443.45,739.78 445.04,735.88 446.64,730.78 C449.08,723.04 449.93,721.45 451.78,721.18 C453.58,720.92 454.00,721.35 454.00,723.41 C454.00,724.81 453.36,727.66 452.59,729.73 C451.81,731.80 449.96,736.79 448.48,740.81 C445.99,747.56 445.58,748.09 443.14,747.81 C440.78,747.53 440.20,746.58 437.60,738.75 C436.00,733.94 434.37,730.00 433.98,730.00 C433.59,730.00 432.48,732.81 431.52,736.25 C430.56,739.69 429.17,743.68 428.42,745.13 ZM 464.75 739.50 C464.52,746.91 464.34,747.52 462.29,747.81 C459.18,748.26 458.88,746.26 459.21,727.00 L 459.50 710.50 L 462.00 710.50 C464.37,710.50 464.52,710.83 464.80,716.75 L 465.10 723.00 L 468.00 721.50 C471.91,719.48 474.86,719.62 478.77,722.00 C483.20,724.70 484.12,727.71 483.79,738.41 C483.52,746.97 483.37,747.52 481.25,747.82 C479.06,748.13 479.00,747.90 479.00,739.02 C479.00,730.68 478.79,729.70 476.55,727.45 C473.80,724.71 472.27,724.46 468.52,726.17 C465.48,727.56 465.08,728.96 464.75,739.50 ZM 392.83 753.68 C392.36,756.14 388.66,756.52 386.46,754.32 C385.48,753.34 383.36,749.71 381.74,746.27 C376.09,734.18 377.05,718.96 384.19,707.75 C386.43,704.22 387.83,703.00 389.64,703.00 C393.45,703.00 393.39,705.21 389.38,712.51 C386.21,718.29 385.59,720.45 385.20,727.06 C384.70,735.77 386.27,741.89 390.60,748.14 C392.02,750.19 393.02,752.68 392.83,753.68 ZM 638.04 752.95 C634.92,756.30 633.99,756.59 632.20,754.80 C630.42,753.02 630.72,751.23 633.40,747.68 C640.83,737.81 640.83,721.94 633.39,710.66 C630.73,706.64 630.81,704.39 633.65,703.30 C635.95,702.42 640.40,707.86 643.20,714.98 C647.79,726.65 645.27,745.22 638.04,752.95 ZM 522.69 745.82 C517.61,750.60 500.79,748.20 503.91,743.14 C504.59,742.04 505.72,742.02 510.21,743.02 C514.37,743.95 516.19,743.97 517.84,743.09 C522.21,740.75 519.96,737.83 512.72,736.48 C505.59,735.14 502.37,730.40 504.62,724.54 C506.84,718.76 524.63,718.60 523.80,724.37 C523.59,725.88 522.92,726.40 521.50,726.16 C514.32,724.94 511.82,724.90 510.48,726.02 C507.75,728.28 508.96,729.80 515.16,731.90 C518.54,733.04 522.14,734.73 523.16,735.64 C525.77,738.01 525.54,743.15 522.69,745.82 ZM 539.92 741.08 C543.48,744.63 546.00,744.76 549.69,741.59 C552.02,739.58 552.50,738.38 552.50,734.50 C552.50,730.62 552.02,729.42 549.69,727.41 C546.47,724.64 542.43,724.31 539.22,726.56 C537.43,727.81 537.00,729.08 537.00,733.13 C537.00,737.35 537.47,738.62 539.92,741.08 ZM 402.68 743.39 C401.86,745.52 398.70,745.44 396.75,743.25 C394.00,740.18 391.68,731.32 392.35,726.45 C393.18,720.41 396.55,714.00 398.90,714.00 C402.48,714.00 403.19,716.36 401.03,721.12 C398.45,726.81 398.48,731.89 401.15,737.37 C402.33,739.80 403.02,742.51 402.68,743.39 ZM 627.41 743.09 C625.31,745.42 622.16,745.57 621.32,743.39 C620.98,742.51 621.67,739.80 622.85,737.37 C625.54,731.84 625.58,726.57 623.00,721.50 C620.63,716.85 621.19,714.00 624.48,714.00 C627.29,714.00 630.52,719.98 631.48,727.00 C632.18,732.07 630.17,740.05 627.41,743.09 ZM 600.39 746.42 C599.78,748.01 596.90,748.57 595.67,747.33 C594.83,746.50 594.78,724.73 595.61,722.58 C596.27,720.85 600.00,720.38 600.00,722.03 C600.00,722.60 601.34,722.36 603.07,721.47 C607.16,719.35 610.41,719.89 610.82,722.75 C611.09,724.63 610.67,725.00 608.29,725.00 C606.73,725.00 604.44,725.70 603.22,726.56 C601.23,727.95 601.00,728.97 601.00,736.47 C601.00,741.07 600.73,745.55 600.39,746.42 ZM 496.78 734.25 C496.51,747.13 496.44,747.51 494.25,747.82 C492.01,748.14 492.00,748.07 492.00,734.57 L 492.00 721.00 L 497.06 721.00 ZM 569.00 730.69 C569.00,731.65 570.89,732.00 576.00,732.00 C582.27,732.00 583.00,731.80 583.00,730.06 C583.00,727.57 579.35,725.00 575.82,725.00 C573.00,725.00 569.00,728.34 569.00,730.69 ZM 497.51 714.99 C496.54,716.55 492.01,716.18 491.36,714.50 C490.41,712.03 491.78,710.00 494.40,710.00 C496.91,710.00 498.76,712.97 497.51,714.99 Z" fill="rgb(128,130,130)"/>
<path d="M 466.61 454.86 C470.08,453.57 472.20,452.83 473.19,451.33 C474.16,449.89 474.08,447.75 473.15,443.74 C475.87,453.75 478.72,464.23 480.02,469.00 C481.59,474.77 483.36,481.34 483.94,483.59 C485.52,489.71 492.37,491.96 494.89,487.18 C495.96,485.16 502.85,464.55 509.94,442.15 C512.79,433.15 516.22,423.47 517.57,420.63 C520.47,414.49 526.68,406.80 533.31,401.12 C536.59,398.31 537.64,397.01 536.42,397.21 C539.42,395.78 541.78,394.57 549.16,390.80 C557.11,386.73 559.45,386.02 572.00,383.86 C579.78,382.53 596.17,383.37 604.00,385.51 C607.03,386.34 613.05,388.84 617.38,391.08 C622.44,393.69 625.60,394.80 626.22,394.18 C626.99,393.41 624.21,385.16 620.98,377.78 C625.47,387.46 628.59,397.62 630.05,407.81 C631.94,420.94 630.81,442.34 627.59,454.50 C622.35,474.27 608.25,498.15 594.04,511.31 C571.08,532.56 543.94,543.05 512.14,542.96 C498.18,542.93 492.04,542.06 476.80,537.96 L 468.10 535.63 L 448.96 544.81 C438.43,549.87 429.17,554.00 428.38,554.00 C427.58,554.00 426.67,553.30 426.34,552.44 C426.01,551.59 426.74,541.90 427.96,530.92 L 430.18 510.95 L 423.94 504.27 C412.55,492.10 403.94,477.11 398.61,460.20 C398.43,459.61 398.25,459.05 398.08,458.52 C396.41,453.26 395.62,450.75 396.53,449.56 C397.37,448.48 399.61,448.49 403.90,448.50 C404.37,448.50 404.87,448.50 405.40,448.50 C409.04,448.50 411.52,448.47 413.41,448.08 C412.00,448.43 410.27,448.61 407.99,448.77 L 400.94 449.27 L 404.39 451.62 C406.29,452.91 409.79,454.40 412.17,454.92 C414.55,455.45 419.20,456.54 422.50,457.34 C430.18,459.22 432.23,459.29 434.32,457.75 C435.71,456.73 435.70,455.83 432.73,448.22 C435.86,456.06 439.16,463.16 440.16,464.16 C442.29,466.29 447.26,466.60 448.84,464.69 C449.37,464.06 452.00,456.38 455.01,446.80 C453.62,451.31 452.61,454.60 452.43,455.17 C451.42,458.44 457.33,458.31 466.61,454.86 ZM 547.34 683.53 C543.50,684.94 538.36,685.40 522.50,685.75 C503.15,686.18 502.41,686.12 499.75,684.02 L 497.00 681.85 L 497.00 648.62 C497.00,616.14 497.05,615.32 499.12,613.10 C501.21,610.86 501.47,610.83 522.37,611.17 C544.93,611.54 546.89,611.94 552.84,617.37 C560.24,624.13 559.32,639.28 551.18,644.62 L 548.74 646.21 L 552.59 648.37 C563.24,654.34 564.97,669.56 555.98,678.13 C553.89,680.12 550.00,682.55 547.34,683.53 ZM 530.65 489.51 C532.11,490.97 534.91,491.12 554.90,490.78 C579.30,490.38 583.82,489.56 590.76,484.34 C601.38,476.34 600.75,457.35 589.63,450.23 C587.36,448.77 585.34,447.48 585.14,447.35 C584.95,447.23 586.38,445.72 588.33,444.02 C593.10,439.83 595.45,433.47 594.67,426.89 C593.37,415.86 585.49,408.30 574.25,407.29 C568.55,406.78 568.42,406.83 559.35,412.92 L 559.21 413.02 C552.05,417.82 548.72,420.05 549.06,421.09 C549.35,422.00 552.43,422.00 558.20,422.00 L 558.33 422.00 C564.15,422.00 570.00,422.50 571.34,423.11 C576.48,425.45 577.68,434.07 573.42,438.08 C571.00,440.36 570.15,440.50 559.18,440.50 L 547.51 440.50 L 547.83 436.75 C548.01,434.69 547.84,433.00 547.46,433.00 C547.08,433.00 542.77,436.65 537.88,441.11 L 529.00 449.22 L 529.00 468.54 C529.00,485.17 529.23,488.09 530.65,489.51 ZM 706.17 684.35 C703.83,686.47 696.20,686.53 693.22,684.44 L 691.00 682.89 L 691.00 646.51 C691.00,644.26 691.00,642.13 691.00,640.13 C690.98,615.96 690.97,609.36 693.89,607.60 C694.99,606.94 696.50,606.96 698.58,606.99 C699.03,606.99 699.52,607.00 700.04,607.00 C704.84,607.00 706.12,607.36 706.96,608.93 C707.58,610.08 708.00,618.78 708.00,630.17 L 708.00 649.47 L 719.27 638.23 L 730.53 627.00 L 736.07 627.00 C742.18,627.00 744.00,628.13 744.00,631.93 C744.00,633.77 741.63,636.84 735.26,643.24 C728.50,650.04 726.75,652.35 727.51,653.48 C728.06,654.28 732.44,660.40 737.25,667.08 C742.06,673.76 746.00,679.85 746.00,680.61 C746.00,683.42 742.13,686.00 737.90,686.00 C731.99,686.00 729.19,683.88 722.47,674.33 L 722.46 674.31 C717.28,666.95 715.50,664.42 713.88,664.51 C713.02,664.56 712.21,665.34 710.96,666.53 C708.26,669.13 708.00,669.96 708.00,676.03 C708.00,681.21 707.59,683.06 706.17,684.35 ZM 600.39 683.61 C594.39,686.65 584.51,686.87 578.42,684.10 C565.32,678.15 564.92,660.09 577.75,653.88 C581.52,652.05 584.64,651.53 593.72,651.18 C604.87,650.75 605.00,650.72 605.00,648.33 C605.00,646.99 603.81,644.80 602.35,643.45 C600.19,641.45 598.67,641.00 594.03,641.00 C590.91,641.00 586.21,641.73 583.59,642.63 C579.02,644.18 578.70,644.16 576.16,642.28 C574.68,641.18 573.36,639.10 573.18,637.59 C572.34,630.52 579.76,626.99 595.43,627.01 C608.63,627.02 614.40,629.42 618.66,636.66 C621.49,641.48 621.50,641.58 621.84,661.66 C622.16,681.01 622.09,681.91 620.09,683.91 C617.08,686.92 610.67,686.76 607.51,683.61 L 605.12 681.21 ZM 674.13 684.47 C672.28,685.41 667.56,686.36 663.63,686.59 C649.90,687.41 638.80,681.41 633.32,670.23 C630.97,665.42 630.52,663.24 630.52,656.50 C630.51,643.98 635.89,634.74 646.41,629.19 C650.95,626.79 652.58,626.50 661.50,626.50 C670.32,626.50 672.03,626.80 675.98,629.01 C683.09,632.99 684.04,640.44 677.87,643.90 C675.51,645.22 674.79,645.16 670.20,643.18 C658.01,637.94 648.53,642.92 647.37,655.17 C646.19,667.67 657.75,675.74 668.78,670.11 C674.34,667.27 677.40,667.42 679.93,670.63 C683.99,675.80 682.03,680.48 674.13,684.47 ZM 574.01 474.38 C571.14,475.53 566.77,476.00 558.98,476.00 L 548.00 476.00 L 548.00 456.00 L 574.15 456.00 L 577.08 458.92 C579.24,461.08 580.00,462.80 580.00,465.49 C580.00,470.56 578.69,472.51 574.01,474.38 ZM 514.00 655.00 L 514.00 671.00 L 525.55 671.00 C540.60,671.00 544.00,669.41 544.00,662.37 C544.00,661.02 542.90,658.80 541.55,657.45 C539.20,655.11 538.53,655.00 526.55,655.00 ZM 514.67 640.33 C515.03,640.70 519.20,641.00 523.92,641.00 C533.92,641.00 538.92,639.10 540.43,634.75 C541.20,632.54 540.98,631.45 539.34,629.25 C537.33,626.56 537.04,626.49 525.64,626.22 L 514.00 625.94 L 514.00 632.80 C514.00,636.58 514.30,639.97 514.67,640.33 ZM 506.60 423.34 C504.45,427.41 500.88,436.98 497.59,447.57 C494.34,457.98 491.51,466.71 491.29,466.97 C490.56,467.84 489.16,464.67 487.58,458.56 C486.72,455.23 484.20,445.75 481.98,437.50 C481.58,436.02 481.15,434.40 480.69,432.70 C482.79,440.38 483.99,444.32 484.34,444.67 C485.15,445.48 488.41,443.15 495.00,437.08 C498.02,434.29 501.01,432.01 501.64,432.00 C502.27,432.00 503.05,430.95 503.37,429.66 C503.71,428.32 504.93,426.01 506.60,423.34 ZM 587.17 672.40 C591.69,675.57 601.53,673.61 603.97,669.06 C604.54,668.00 605.00,665.75 605.00,664.07 L 605.00 661.00 L 598.75 661.00 C590.37,661.00 585.61,663.34 585.19,667.65 C584.96,670.02 585.46,671.21 587.17,672.40 ZM 409.78 366.20 C417.96,352.52 428.90,340.45 441.94,330.96 C429.16,340.51 418.01,352.72 409.78,366.20 ZM 525.73 308.73 C536.20,309.74 545.92,312.07 555.47,315.89 C552.26,314.65 549.00,313.54 545.68,312.58 C539.26,310.72 532.56,309.44 525.73,308.73 ZM 472.45 314.65 C480.58,311.76 488.96,309.88 497.90,308.92 C489.16,309.94 480.57,311.86 472.45,314.65 ZM 522.87 404.54 C520.20,406.58 517.58,409.00 515.13,411.67 C516.43,410.13 517.68,408.79 518.77,407.77 C519.84,406.78 521.28,405.65 522.87,404.54 ZM 395.52 402.91 C394.10,410.64 393.71,418.74 393.89,430.73 C393.69,417.62 394.14,409.85 395.52,402.91 ZM 461.52 425.90 C464.14,417.75 465.02,415.69 465.42,416.11 C465.43,416.13 465.46,416.19 465.50,416.30 C465.03,415.84 463.99,418.27 461.52,425.90 ZM 590.68 337.35 C596.30,342.24 601.48,347.71 606.12,353.61 C601.43,347.68 596.26,342.24 590.68,337.35 Z" fill="rgb(111,63,163)"/>
<path d="M 0.00 512.00 L 0.00 0.00 L 512.00 0.00 L 1024.00 0.00 L 1024.00 512.00 L 1024.00 1024.00 L 512.00 1024.00 L 0.00 1024.00 L 0.00 512.00 ZM 536.80 751.66 C537.06,746.62 537.34,745.92 538.80,746.54 C545.41,749.30 545.80,749.35 549.62,747.89 C554.99,745.85 558.00,741.07 558.00,734.60 C557.99,725.83 552.42,720.00 544.05,720.00 C539.39,720.00 533.41,722.82 532.14,725.60 C530.94,728.23 530.52,753.58 531.63,756.47 C532.00,757.44 533.13,757.98 534.38,757.80 C536.22,757.54 536.54,756.74 536.80,751.66 ZM 392.83 753.68 C393.02,752.68 392.02,750.19 390.60,748.14 C386.27,741.89 384.70,735.77 385.20,727.06 C385.59,720.45 386.21,718.29 389.38,712.51 C393.39,705.21 393.45,703.00 389.64,703.00 C387.83,703.00 386.43,704.22 384.19,707.75 C377.05,718.96 376.09,734.18 381.74,746.27 C383.36,749.71 385.48,753.34 386.46,754.32 C388.66,756.52 392.36,756.14 392.83,753.68 ZM 638.04 752.95 C645.27,745.22 647.79,726.65 643.20,714.98 C640.40,707.86 635.95,702.42 633.65,703.30 C630.81,704.39 630.73,706.64 633.39,710.66 C640.83,721.94 640.83,737.81 633.40,747.68 C630.72,751.23 630.42,753.02 632.20,754.80 C633.99,756.59 634.92,756.30 638.04,752.95 ZM 428.42 745.13 C429.17,743.68 430.56,739.69 431.52,736.25 C432.48,732.81 433.59,730.00 433.98,730.00 C434.37,730.00 436.00,733.94 437.60,738.75 C440.20,746.58 440.78,747.53 443.14,747.81 C445.58,748.09 445.99,747.56 448.48,740.81 C449.96,736.79 451.81,731.80 452.59,729.73 C453.36,727.66 454.00,724.81 454.00,723.41 C454.00,721.35 453.58,720.92 451.78,721.18 C449.93,721.45 449.08,723.04 446.64,730.78 C445.04,735.88 443.45,739.78 443.11,739.45 C442.78,739.11 441.15,734.94 439.50,730.17 C436.84,722.47 436.23,721.50 434.06,721.50 C431.88,721.50 431.32,722.44 428.60,730.75 C426.94,735.84 425.29,740.00 424.93,740.00 C424.58,740.00 423.24,736.13 421.97,731.40 C420.70,726.68 419.05,722.19 418.30,721.45 C416.73,719.87 414.00,720.58 414.00,722.56 C414.00,725.16 421.92,747.34 423.11,748.07 C424.91,749.18 426.91,748.08 428.42,745.13 ZM 522.69 745.82 C525.54,743.15 525.77,738.01 523.16,735.64 C522.14,734.73 518.54,733.04 515.16,731.90 C508.96,729.80 507.75,728.28 510.48,726.02 C511.82,724.90 514.32,724.94 521.50,726.16 C522.92,726.40 523.59,725.88 523.80,724.37 C524.63,718.60 506.84,718.76 504.62,724.54 C502.37,730.40 505.59,735.14 512.72,736.48 C519.96,737.83 522.21,740.75 517.84,743.09 C516.19,743.97 514.37,743.95 510.21,743.02 C505.72,742.02 504.59,742.04 503.91,743.14 C500.79,748.20 517.61,750.60 522.69,745.82 ZM 584.97 747.02 C586.09,746.42 587.00,744.99 587.00,743.85 C587.00,742.04 586.59,741.86 583.75,742.43 C575.07,744.20 574.50,744.18 571.74,742.01 C570.23,740.82 569.00,739.26 569.00,738.54 C569.00,736.73 573.14,735.84 577.93,736.61 C580.12,736.95 583.56,736.93 585.57,736.55 L 589.24 735.86 L 588.72 731.21 C588.32,727.67 587.47,725.91 585.14,723.84 C576.30,715.94 563.00,721.89 563.00,733.75 C563.00,743.29 569.37,749.50 578.22,748.59 C580.82,748.32 583.86,747.61 584.97,747.02 ZM 464.75 739.50 C465.08,728.96 465.48,727.56 468.52,726.17 C472.27,724.46 473.80,724.71 476.55,727.45 C478.79,729.70 479.00,730.68 479.00,739.02 C479.00,747.90 479.06,748.13 481.25,747.82 C483.37,747.52 483.52,746.97 483.79,738.41 C484.12,727.71 483.20,724.70 478.77,722.00 C474.86,719.62 471.91,719.48 468.00,721.50 L 465.10 723.00 L 464.80 716.75 C464.52,710.83 464.37,710.50 462.00,710.50 L 459.50 710.50 L 459.21 727.00 C458.88,746.26 459.18,748.26 462.29,747.81 C464.34,747.52 464.52,746.91 464.75,739.50 ZM 496.78 734.25 L 497.06 721.00 L 494.53 721.00 L 492.00 721.00 L 492.00 734.57 C492.00,748.07 492.01,748.14 494.25,747.82 C496.44,747.51 496.51,747.13 496.78,734.25 ZM 600.39 746.42 C600.73,745.55 601.00,741.07 601.00,736.47 C601.00,728.97 601.23,727.95 603.22,726.56 C604.44,725.70 606.73,725.00 608.29,725.00 C610.67,725.00 611.09,724.63 610.82,722.75 C610.41,719.89 607.16,719.35 603.07,721.47 C601.34,722.36 600.00,722.60 600.00,722.03 C600.00,720.38 596.27,720.85 595.61,722.58 C594.78,724.73 594.83,746.50 595.67,747.33 C596.90,748.57 599.78,748.01 600.39,746.42 ZM 402.68 743.39 C403.02,742.51 402.33,739.80 401.15,737.37 C398.48,731.89 398.45,726.81 401.03,721.12 C403.19,716.36 402.48,714.00 398.90,714.00 C396.55,714.00 393.18,720.41 392.35,726.45 C391.68,731.32 394.00,740.18 396.75,743.25 C398.70,745.44 401.86,745.52 402.68,743.39 ZM 627.41 743.09 C630.17,740.05 632.18,732.07 631.48,727.00 C630.52,719.98 627.29,714.00 624.48,714.00 C621.19,714.00 620.63,716.85 623.00,721.50 C625.58,726.57 625.54,731.84 622.85,737.37 C621.67,739.80 620.98,742.51 621.32,743.39 C622.16,745.57 625.31,745.42 627.41,743.09 ZM 497.51 714.99 C498.76,712.97 496.91,710.00 494.40,710.00 C491.78,710.00 490.41,712.03 491.36,714.50 C492.01,716.18 496.54,716.55 497.51,714.99 ZM 366.40 684.53 C372.29,682.11 372.32,682.10 374.79,684.05 C377.82,686.43 383.70,686.60 386.85,684.39 C389.13,682.79 389.14,682.70 388.82,662.14 C388.52,642.74 388.36,641.26 386.20,637.48 C384.93,635.27 382.32,632.39 380.41,631.08 C376.45,628.37 368.32,626.00 362.97,626.00 C357.77,626.00 348.00,627.95 344.73,629.64 C339.30,632.45 338.60,639.38 343.44,642.55 C345.63,643.99 346.27,643.99 350.46,642.57 C361.36,638.87 371.94,641.84 371.98,648.62 C372.00,650.64 371.42,650.77 360.68,651.18 C347.38,651.69 340.89,654.13 337.63,659.83 C333.59,666.89 335.68,677.44 342.06,682.20 C348.95,687.33 357.57,688.16 366.40,684.53 ZM 674.13 684.47 C682.03,680.48 683.99,675.80 679.93,670.63 C677.40,667.42 674.34,667.27 668.78,670.11 C657.75,675.74 646.19,667.67 647.37,655.17 C648.53,642.92 658.01,637.94 670.20,643.18 C674.79,645.16 675.51,645.22 677.87,643.90 C684.04,640.44 683.09,632.99 675.98,629.01 C672.03,626.80 670.32,626.50 661.50,626.50 C652.58,626.50 650.95,626.79 646.41,629.19 C635.89,634.74 630.51,643.98 630.52,656.50 C630.52,663.24 630.97,665.42 633.32,670.23 C638.80,681.41 649.90,687.41 663.63,686.59 C667.56,686.36 672.28,685.41 674.13,684.47 ZM 312.55 683.55 L 315.00 681.09 L 315.00 653.55 L 315.00 626.00 L 325.17 626.00 C333.23,626.00 335.72,625.66 337.17,624.35 C339.45,622.29 339.59,616.29 337.44,613.22 C335.89,611.01 335.75,611.00 306.00,611.00 C276.25,611.00 276.11,611.01 274.56,613.22 C272.49,616.17 272.58,621.28 274.75,623.88 C276.28,625.71 277.75,626.01 286.50,626.24 L 296.50 626.50 L 297.00 654.83 C297.57,686.93 297.31,686.00 305.74,686.00 C309.03,686.00 310.69,685.40 312.55,683.55 ZM 416.17 684.35 C417.88,682.80 418.00,680.30 417.98,646.60 C417.98,626.74 417.64,610.00 417.23,609.40 C414.02,604.58 402.71,605.31 401.43,610.42 C401.15,611.56 401.05,628.40 401.21,647.83 C401.49,681.47 401.59,683.23 403.44,684.58 C406.14,686.55 413.89,686.41 416.17,684.35 ZM 446.43 684.43 C447.54,683.32 448.00,680.93 448.00,676.35 C448.00,670.40 448.27,669.58 451.12,666.73 C453.77,664.08 454.41,663.83 455.37,665.08 C455.99,665.88 459.54,670.65 463.25,675.67 C466.97,680.68 470.71,685.06 471.58,685.39 C472.45,685.73 475.23,686.00 477.75,686.00 C482.65,686.00 486.00,683.97 486.00,681.00 C486.00,680.07 481.68,673.33 476.40,666.02 L 466.80 652.74 L 475.90 643.60 C481.74,637.74 485.00,633.69 485.00,632.30 C485.00,628.68 482.36,627.00 476.66,627.00 L 471.47 627.00 L 460.50 638.00 C454.47,644.05 449.19,649.00 448.77,649.00 C448.35,649.00 447.99,640.34 447.98,629.75 C447.98,619.16 447.64,610.00 447.23,609.40 C446.05,607.63 442.34,606.00 439.50,606.00 C436.66,606.00 432.95,607.63 431.77,609.40 C431.36,610.00 431.02,626.49 431.02,646.03 C431.00,687.40 430.70,686.00 439.49,686.00 C443.04,686.00 445.39,685.47 446.43,684.43 ZM 547.34 683.53 C550.00,682.55 553.89,680.12 555.98,678.13 C564.97,669.56 563.24,654.34 552.59,648.37 L 548.74 646.21 L 551.18 644.62 C559.32,639.28 560.24,624.13 552.84,617.37 C546.89,611.94 544.93,611.54 522.37,611.17 C501.47,610.83 501.21,610.86 499.12,613.10 C497.05,615.32 497.00,616.14 497.00,648.62 L 497.00 681.85 L 499.75 684.02 C502.41,686.12 503.15,686.18 522.50,685.75 C538.36,685.40 543.50,684.94 547.34,683.53 ZM 600.39 683.61 L 605.12 681.21 L 607.51 683.61 C610.67,686.76 617.08,686.92 620.09,683.91 C622.09,681.91 622.16,681.01 621.84,661.66 C621.50,641.58 621.49,641.48 618.66,636.66 C614.40,629.42 608.63,627.02 595.43,627.01 C579.76,626.99 572.34,630.52 573.18,637.59 C573.36,639.10 574.68,641.18 576.16,642.28 C578.70,644.16 579.02,644.18 583.59,642.63 C586.21,641.73 590.91,641.00 594.03,641.00 C598.67,641.00 600.19,641.45 602.35,643.45 C603.81,644.80 605.00,646.99 605.00,648.33 C605.00,650.72 604.87,650.75 593.72,651.18 C584.64,651.53 581.52,652.05 577.75,653.88 C564.92,660.09 565.32,678.15 578.42,684.10 C584.51,686.87 594.39,686.65 600.39,683.61 ZM 706.17 684.35 C707.59,683.06 708.00,681.21 708.00,676.03 C708.00,669.96 708.26,669.13 710.96,666.53 C714.57,663.08 714.56,663.08 722.47,674.33 C729.19,683.88 731.99,686.00 737.90,686.00 C742.13,686.00 746.00,683.42 746.00,680.61 C746.00,679.85 742.06,673.76 737.25,667.08 C732.44,660.40 728.06,654.28 727.51,653.48 C726.75,652.35 728.50,650.04 735.26,643.24 C741.63,636.84 744.00,633.77 744.00,631.93 C744.00,628.13 742.18,627.00 736.07,627.00 L 730.53 627.00 L 719.27 638.23 L 708.00 649.47 L 708.00 630.17 C708.00,618.78 707.58,610.08 706.96,608.93 C706.12,607.36 704.84,607.00 700.04,607.00 C690.46,607.00 691.00,604.62 691.00,646.51 L 691.00 682.89 L 693.22 684.44 C696.20,686.53 703.83,686.47 706.17,684.35 ZM 540.50 579.56 C590.90,569.69 630.81,539.30 653.86,493.25 C672.27,456.47 674.85,410.61 660.62,373.33 C654.70,357.81 646.40,342.54 638.14,332.00 C634.00,326.70 623.83,316.00 622.95,316.00 C621.01,316.00 623.40,320.71 629.09,328.09 C638.56,340.37 641.32,344.60 647.40,356.13 C668.19,395.56 670.47,438.57 654.06,481.53 C649.58,493.25 639.80,510.25 632.47,519.03 C591.32,568.37 529.25,587.98 469.35,570.56 C462.83,568.66 454.90,565.96 451.72,564.56 C440.55,559.61 436.56,562.54 447.28,567.82 C460.16,574.16 475.07,578.27 496.50,581.40 C502.80,582.32 532.79,581.06 540.50,579.56 ZM 448.96 544.81 L 468.10 535.63 L 476.80 537.96 C492.04,542.06 498.18,542.93 512.14,542.96 C543.94,543.05 571.08,532.56 594.04,511.31 C608.25,498.15 622.35,474.27 627.59,454.50 C630.81,442.34 631.94,420.94 630.05,407.81 C625.62,376.99 606.07,346.47 579.37,328.69 C556.03,313.16 534.44,307.11 506.50,308.29 C484.12,309.23 465.55,315.27 446.50,327.80 C420.39,344.97 401.82,372.23 395.61,402.50 C394.16,409.54 393.68,417.36 393.89,430.75 L 394.00 438.00 L 402.31 438.00 L 410.62 438.00 L 415.44 429.25 C421.00,419.17 423.58,416.00 426.24,416.00 C430.42,416.00 431.92,418.19 437.57,432.54 C440.72,440.55 443.63,446.74 444.03,446.30 C444.43,445.86 445.23,443.92 445.80,442.00 C446.38,440.08 448.41,433.55 450.33,427.50 C452.25,421.45 455.25,411.87 457.02,406.21 C458.78,400.55 460.88,395.26 461.68,394.46 C463.52,392.62 468.39,392.56 469.89,394.36 C470.51,395.11 472.58,401.75 474.48,409.11 C476.38,416.48 479.76,429.25 481.98,437.50 C484.20,445.75 486.72,455.23 487.58,458.56 C489.16,464.67 490.56,467.84 491.29,466.97 C491.51,466.71 494.34,457.98 497.59,447.57 C501.09,436.31 504.90,426.20 506.99,422.63 C512.38,413.41 520.94,404.80 528.89,400.63 C537.90,395.89 539.24,396.04 533.31,401.12 C526.68,406.80 520.47,414.49 517.57,420.63 C516.22,423.47 512.79,433.15 509.94,442.15 C502.85,464.55 495.96,485.16 494.89,487.18 C492.37,491.96 485.52,489.71 483.94,483.59 C483.36,481.34 481.59,474.77 480.02,469.00 C478.44,463.23 474.59,449.05 471.46,437.50 C468.34,425.95 465.61,416.33 465.42,416.11 C464.83,415.48 463.16,420.33 456.37,442.44 C452.83,453.95 449.44,463.97 448.84,464.69 C447.26,466.60 442.29,466.29 440.16,464.16 C439.14,463.14 435.70,455.72 432.51,447.66 C429.32,439.59 426.41,433.00 426.04,433.00 C425.68,433.00 423.85,435.71 421.98,439.03 C416.82,448.21 416.32,448.50 405.40,448.50 C394.38,448.50 394.74,447.88 398.61,460.20 C403.94,477.11 412.55,492.10 423.94,504.27 L 430.18 510.95 L 427.96 530.92 C426.74,541.90 426.01,551.59 426.34,552.44 C426.67,553.30 427.58,554.00 428.38,554.00 C429.17,554.00 438.43,549.87 448.96,544.81 ZM 376.83 496.67 C355.05,453.34 353.53,404.56 372.69,363.12 C379.53,348.33 379.34,348.97 376.76,349.32 C375.00,349.56 373.33,351.95 369.22,360.07 C358.40,381.43 354.47,399.39 354.56,427.00 C354.61,442.11 355.02,447.36 356.81,455.65 C359.68,468.95 365.09,484.37 370.73,495.31 C376.08,505.70 377.62,507.56 379.57,505.94 C380.69,505.01 380.20,503.37 376.83,496.67 ZM 441.57 291.63 C466.03,279.34 486.66,274.80 517.00,275.02 C540.18,275.19 539.00,275.27 539.00,273.57 C539.00,269.91 508.28,268.23 490.00,270.89 C459.53,275.32 430.12,288.54 412.18,305.87 C408.98,308.97 406.82,311.16 407.38,310.75 C409.24,309.38 410.27,309.97 408.90,311.62 C408.16,312.51 413.20,309.39 420.10,304.67 C427.00,299.96 436.66,294.09 441.57,291.63 ZM 539.92 741.08 C537.47,738.62 537.00,737.35 537.00,733.13 C537.00,729.08 537.43,727.81 539.22,726.56 C542.43,724.31 546.47,724.64 549.69,727.41 C552.02,729.42 552.50,730.62 552.50,734.50 C552.50,738.38 552.02,739.58 549.69,741.59 C546.00,744.76 543.48,744.63 539.92,741.08 ZM 569.00 730.69 C569.00,728.34 573.00,725.00 575.82,725.00 C579.35,725.00 583.00,727.57 583.00,730.06 C583.00,731.80 582.27,732.00 576.00,732.00 C570.89,732.00 569.00,731.65 569.00,730.69 ZM 354.25 672.51 C350.23,669.61 351.79,663.96 357.13,662.11 C358.87,661.50 362.93,661.00 366.15,661.00 L 372.00 661.00 L 372.00 664.44 C372.00,669.98 368.48,673.22 361.92,673.72 C357.98,674.02 355.88,673.69 354.25,672.51 ZM 514.00 663.00 L 514.00 655.00 L 526.55 655.00 C538.53,655.00 539.20,655.11 541.55,657.45 C542.90,658.80 544.00,661.02 544.00,662.37 C544.00,669.41 540.60,671.00 525.55,671.00 L 514.00 671.00 L 514.00 663.00 ZM 514.67 640.33 C514.30,639.97 514.00,636.58 514.00,632.80 L 514.00 625.94 L 525.64 626.22 C537.04,626.49 537.33,626.56 539.34,629.25 C540.98,631.45 541.20,632.54 540.43,634.75 C538.92,639.10 533.92,641.00 523.92,641.00 C519.20,641.00 515.03,640.70 514.67,640.33 ZM 587.17 672.40 C585.46,671.21 584.96,670.02 585.19,667.65 C585.61,663.34 590.37,661.00 598.75,661.00 L 605.00 661.00 L 605.00 664.07 C605.00,665.75 604.54,668.00 603.97,669.06 C601.53,673.61 591.69,675.57 587.17,672.40 ZM 530.65 489.51 C529.23,488.09 529.00,485.17 529.00,468.54 L 529.00 449.22 L 537.88 441.11 C542.77,436.65 547.08,433.00 547.46,433.00 C547.84,433.00 548.01,434.69 547.83,436.75 L 547.51 440.50 L 559.18 440.50 C570.15,440.50 571.00,440.36 573.42,438.08 C577.68,434.07 576.48,425.45 571.34,423.11 C570.00,422.50 564.15,422.00 558.33,422.00 C545.77,422.00 545.77,422.03 559.35,412.92 C568.42,406.83 568.55,406.78 574.25,407.29 C585.49,408.30 593.37,415.86 594.67,426.89 C595.45,433.47 593.10,439.83 588.33,444.02 C586.38,445.72 584.95,447.23 585.14,447.35 C585.34,447.48 587.36,448.77 589.63,450.23 C600.75,457.35 601.38,476.34 590.76,484.34 C583.82,489.56 579.30,490.38 554.90,490.78 C534.91,491.12 532.11,490.97 530.65,489.51 ZM 574.01 474.38 C578.69,472.51 580.00,470.56 580.00,465.49 C580.00,462.80 579.24,461.08 577.08,458.92 L 574.15 456.00 L 561.08 456.00 L 548.00 456.00 L 548.00 466.00 L 548.00 476.00 L 558.98 476.00 C566.77,476.00 571.14,475.53 574.01,474.38 ZM 492.00 397.17 L 492.00 378.00 L 476.06 378.00 C460.71,378.00 460.05,377.92 458.56,375.78 C457.70,374.56 457.00,371.66 457.00,369.33 C457.00,361.83 456.01,362.00 500.64,362.00 C522.20,362.00 540.56,362.28 541.46,362.62 C544.02,363.61 546.21,368.75 545.48,372.08 C544.24,377.73 543.34,378.00 525.93,378.00 L 510.00 378.00 L 510.00 385.91 C510.00,393.73 509.95,393.88 505.75,399.06 C503.41,401.93 499.60,406.76 497.27,409.79 C494.95,412.81 492.81,415.52 492.52,415.81 C492.24,416.10 492.00,407.71 492.00,397.17 Z" fill="rgb(253,254,254)"/>
</g>
</svg>